<svg width="49" height="37" viewBox="0 0 49 37" fill="none" xmlns="http://www.w3.org/2000/svg">
<g opacity="0.8">
<path fill-rule="evenodd" clip-rule="evenodd" d="M46 0C47.6569 0 49 1.34315 49 3V18.5264C49 18.5396 48.9999 18.5528 48.9998 18.566C48.9999 18.5791 49 18.5923 49 18.6055V20.0427C49 20.821 48.6975 21.5689 48.1564 22.1284L35.406 35.311C34.1803 36.5782 32.1314 36.5205 30.9791 35.1862L29.8344 33.8607C28.8069 32.6711 28.872 30.89 29.9835 29.7785L38.1654 21.5967C38.1884 21.5736 38.2111 21.5502 38.2334 21.5264H30.4736C28.8167 21.5264 27.4736 20.1833 27.4736 18.5264V3C27.4736 1.34315 28.8167 0 30.4736 0H46Z" fill="#DDE1E4"/>
<path fill-rule="evenodd" clip-rule="evenodd" d="M18.5264 0C20.1833 0 21.5264 1.34315 21.5264 3V18.5264C21.5264 18.5396 21.5263 18.5528 21.5262 18.566C21.5263 18.5791 21.5264 18.5923 21.5264 18.6055V20.0427C21.5264 20.821 21.2239 21.5689 20.6828 22.1284L7.93237 35.311C6.70672 36.5782 4.65783 36.5205 3.50552 35.1862L2.36077 33.8607C1.33333 32.6711 1.39841 30.89 2.50992 29.7785L10.6918 21.5967C10.7148 21.5736 10.7375 21.5502 10.7597 21.5264H2.99998C1.34313 21.5264 -1.90735e-05 20.1833 -1.90735e-05 18.5264V3C-1.90735e-05 1.34315 1.34313 0 2.99998 0H18.5264Z" fill="#DDE1E4"/>
</g>
</svg>
