<svg width="49" height="39" viewBox="0 0 49 39" fill="none" xmlns="http://www.w3.org/2000/svg">
<path d="M20.1014 31.3729L21.0025 30.9393L20.73 30.3729H20.1014V31.3729ZM22.9063 37.2017L22.0052 37.6353L22.9063 37.2017ZM24.7085 37.2017L23.8074 36.7681L24.7085 37.2017ZM27.5134 31.3729V30.3729H26.8849L26.6123 30.9393L27.5134 31.3729ZM2 5C2 3.34315 3.34315 2 5 2V0C2.23858 0 0 2.23858 0 5H2ZM2 27.3729V5H0V27.3729H2ZM5 30.3729C3.34314 30.3729 2 29.0297 2 27.3729H0C0 30.1343 2.23857 32.3729 5 32.3729V30.3729ZM20.1014 30.3729H5V32.3729H20.1014V30.3729ZM23.8074 36.7681L21.0025 30.9393L19.2003 31.8065L22.0052 37.6353L23.8074 36.7681ZM23.8074 36.7681L22.0052 37.6353C22.732 39.1456 24.8828 39.1457 25.6096 37.6353L23.8074 36.7681ZM26.6123 30.9393L23.8074 36.7681L25.6096 37.6353L28.4145 31.8065L26.6123 30.9393ZM43.6755 30.3729H27.5134V32.3729H43.6755V30.3729ZM46.6755 27.3729C46.6755 29.0297 45.3323 30.3729 43.6755 30.3729V32.3729C46.4369 32.3729 48.6755 30.1343 48.6755 27.3729H46.6755ZM46.6755 5V27.3729H48.6755V5H46.6755ZM43.6755 2C45.3324 2 46.6755 3.34314 46.6755 5H48.6755C48.6755 2.23858 46.4369 0 43.6755 0V2ZM5 2H43.6755V0H5V2Z" fill="#10385B"/>
<path d="M11.6804 10.4902L13.1614 14.214L16.5709 14.7532L14.0767 17.5939L14.7029 21.6509L11.6804 19.6828L8.65784 21.6509L9.284 17.5939L6.78982 14.7532L10.1993 14.214L11.6804 10.4902Z" stroke="#04BBF2" stroke-width="2" stroke-miterlimit="10" stroke-linecap="round" stroke-linejoin="round"/>
<path d="M36.9961 10.4902L38.4771 14.214L41.8866 14.7532L39.3925 17.5939L40.0186 21.6509L36.9961 19.6828L33.9736 21.6509L34.5997 17.5939L32.1056 14.7532L35.5151 14.214L36.9961 10.4902Z" stroke="#04BBF2" stroke-width="2" stroke-miterlimit="10" stroke-linecap="round" stroke-linejoin="round"/>
<path d="M24.3383 7.64258L25.8193 11.3664L29.2288 11.9056L26.7346 14.7462L27.3608 18.8033L24.3383 16.8351L21.3157 18.8033L21.9419 14.7462L19.4477 11.9056L22.8572 11.3664L24.3383 7.64258Z" stroke="#04BBF2" stroke-width="2" stroke-miterlimit="10" stroke-linecap="round" stroke-linejoin="round"/>
</svg>
