<svg width="36" height="36" viewBox="0 0 36 36" fill="none" xmlns="http://www.w3.org/2000/svg">
<path d="M6.17907 5.77841C9.34637 2.70637 13.5876 0.991917 18 1.00003C22.5087 1.00003 26.8328 2.79109 30.0209 5.97921C33.209 9.16733 35 13.4913 35 18C35 22.5087 33.209 26.8327 30.0209 30.0208C26.8328 33.2089 22.5087 35 18 35C13.4913 35 9.16734 33.2089 5.97922 30.0208C2.79111 26.8327 1.00001 22.5087 1.00001 18C0.997304 15.793 1.42563 13.6068 2.26083 11.5639" stroke="#04BBF2" stroke-width="1.5" stroke-linecap="round" stroke-linejoin="round"/>
<path d="M20.8468 13.1426L25.2856 18.4691L20.8468 22.9079" stroke="#04BBF2" stroke-width="1.5" stroke-linecap="round" stroke-linejoin="round"/>
<path d="M10.7148 18.4688H24.0312" stroke="#04BBF2" stroke-width="1.5" stroke-linecap="round" stroke-linejoin="round"/>
</svg>
